<mxfile host="app.diagrams.net" agent="Mozilla/5.0 (Macintosh; Intel Mac OS X 10_15_7) AppleWebKit/605.1.15 (KHTML, like Gecko) Version/17.5 Safari/605.1.15" version="24.7.12">
  <diagram name="Page-1" id="RtMJa9Af2m8EYLHBdE7A">
    <mxGraphModel dx="901" dy="507" grid="1" gridSize="10" guides="1" tooltips="1" connect="1" arrows="1" fold="1" page="1" pageScale="1" pageWidth="827" pageHeight="1169" math="1" shadow="0">
      <root>
        <mxCell id="0" />
        <mxCell id="1" parent="0" />
        <mxCell id="BxvPovNHt6wgwya9gG0v-7" value="" style="group" vertex="1" connectable="0" parent="1">
          <mxGeometry x="44" y="143" width="435" height="310" as="geometry" />
        </mxCell>
        <mxCell id="BxvPovNHt6wgwya9gG0v-2" value="" style="rounded=0;whiteSpace=wrap;html=1;fillColor=#fad7ac;strokeColor=#b46504;" vertex="1" parent="BxvPovNHt6wgwya9gG0v-7">
          <mxGeometry x="105" width="75" height="75" as="geometry" />
        </mxCell>
        <mxCell id="BxvPovNHt6wgwya9gG0v-4" value="&lt;font style=&quot;font-size: 12px;&quot;&gt;$$\mathbf{h}^t_{v, L_t, \texttt{[I_CLS]}}$$&lt;/font&gt;" style="text;html=1;align=center;verticalAlign=middle;resizable=0;points=[];autosize=1;strokeColor=none;fillColor=none;" vertex="1" parent="BxvPovNHt6wgwya9gG0v-7">
          <mxGeometry x="22.5" y="22.5" width="240" height="30" as="geometry" />
        </mxCell>
        <mxCell id="BxvPovNHt6wgwya9gG0v-8" value="" style="group" vertex="1" connectable="0" parent="BxvPovNHt6wgwya9gG0v-7">
          <mxGeometry x="74" y="119" width="295" height="80" as="geometry" />
        </mxCell>
        <mxCell id="BxvPovNHt6wgwya9gG0v-5" value="" style="rounded=0;whiteSpace=wrap;html=1;fillColor=#fad7ac;strokeColor=#b46504;" vertex="1" parent="BxvPovNHt6wgwya9gG0v-8">
          <mxGeometry x="100" width="75" height="75" as="geometry" />
        </mxCell>
        <mxCell id="BxvPovNHt6wgwya9gG0v-6" value="&lt;font style=&quot;font-size: 12px;&quot;&gt;$$\mathbf{h}&#39;&#39;&#39;^s_{v, K, \texttt{[I_CLS]}}$$&lt;/font&gt;" style="text;html=1;align=center;verticalAlign=middle;resizable=0;points=[];autosize=1;strokeColor=none;fillColor=none;" vertex="1" parent="BxvPovNHt6wgwya9gG0v-8">
          <mxGeometry x="17.5" y="22.5" width="240" height="30" as="geometry" />
        </mxCell>
        <mxCell id="BxvPovNHt6wgwya9gG0v-25" value="" style="endArrow=classic;html=1;rounded=0;entryX=0.5;entryY=1;entryDx=0;entryDy=0;fillColor=#ffcccc;strokeColor=#000000;dashed=1;strokeWidth=2;" edge="1" parent="BxvPovNHt6wgwya9gG0v-7" source="BxvPovNHt6wgwya9gG0v-5" target="BxvPovNHt6wgwya9gG0v-2">
          <mxGeometry width="50" height="50" relative="1" as="geometry">
            <mxPoint x="335" y="220" as="sourcePoint" />
            <mxPoint x="385" y="170" as="targetPoint" />
          </mxGeometry>
        </mxCell>
        <mxCell id="BxvPovNHt6wgwya9gG0v-9" value="" style="group" vertex="1" connectable="0" parent="1">
          <mxGeometry x="260" y="400" width="300" height="82" as="geometry" />
        </mxCell>
        <mxCell id="BxvPovNHt6wgwya9gG0v-10" value="" style="rounded=0;whiteSpace=wrap;html=1;fillColor=#bac8d3;strokeColor=#23445d;aspect=fixed;" vertex="1" parent="BxvPovNHt6wgwya9gG0v-9">
          <mxGeometry x="100" width="75" height="75" as="geometry" />
        </mxCell>
        <mxCell id="BxvPovNHt6wgwya9gG0v-11" value="&lt;font style=&quot;font-size: 12px;&quot;&gt;$$\mathbf{h}&#39;&#39;&#39;^s_{w, K, \texttt{[T_CLS]}}$$&lt;/font&gt;" style="text;html=1;align=center;verticalAlign=middle;resizable=0;points=[];autosize=1;strokeColor=none;fillColor=none;" vertex="1" parent="BxvPovNHt6wgwya9gG0v-9">
          <mxGeometry x="12.5" y="26.005" width="250" height="30" as="geometry" />
        </mxCell>
        <mxCell id="BxvPovNHt6wgwya9gG0v-27" value="" style="endArrow=classic;startArrow=classic;html=1;rounded=0;dashed=1;dashPattern=1 4;strokeWidth=2;" edge="1" parent="1" source="BxvPovNHt6wgwya9gG0v-5" target="BxvPovNHt6wgwya9gG0v-10">
          <mxGeometry width="50" height="50" relative="1" as="geometry">
            <mxPoint x="390" y="370" as="sourcePoint" />
            <mxPoint x="440" y="320" as="targetPoint" />
          </mxGeometry>
        </mxCell>
        <mxCell id="BxvPovNHt6wgwya9gG0v-28" value="" style="endArrow=classic;html=1;rounded=0;fillColor=#ffcccc;strokeColor=#000000;dashed=1;strokeWidth=2;opacity=30;" edge="1" parent="1" source="BxvPovNHt6wgwya9gG0v-10" target="BxvPovNHt6wgwya9gG0v-2">
          <mxGeometry width="50" height="50" relative="1" as="geometry">
            <mxPoint x="215" y="330" as="sourcePoint" />
            <mxPoint x="215" y="250" as="targetPoint" />
          </mxGeometry>
        </mxCell>
        <mxCell id="BxvPovNHt6wgwya9gG0v-29" value="" style="endArrow=classic;startArrow=classic;html=1;rounded=0;dashed=1;dashPattern=1 4;strokeWidth=2;" edge="1" parent="1" source="BxvPovNHt6wgwya9gG0v-40" target="BxvPovNHt6wgwya9gG0v-43">
          <mxGeometry width="50" height="50" relative="1" as="geometry">
            <mxPoint x="625.2238805970148" y="230" as="sourcePoint" />
            <mxPoint x="654.7761194029849" y="274" as="targetPoint" />
          </mxGeometry>
        </mxCell>
        <mxCell id="BxvPovNHt6wgwya9gG0v-35" value="" style="endArrow=none;html=1;rounded=0;" edge="1" parent="1">
          <mxGeometry width="50" height="50" relative="1" as="geometry">
            <mxPoint x="510" y="510" as="sourcePoint" />
            <mxPoint x="510" y="110" as="targetPoint" />
          </mxGeometry>
        </mxCell>
        <mxCell id="BxvPovNHt6wgwya9gG0v-36" value="" style="group" vertex="1" connectable="0" parent="1">
          <mxGeometry x="354" y="4" width="180" height="60" as="geometry" />
        </mxCell>
        <mxCell id="BxvPovNHt6wgwya9gG0v-31" value="" style="endArrow=classic;startArrow=classic;html=1;rounded=0;dashed=1;dashPattern=1 4;strokeWidth=2;" edge="1" parent="BxvPovNHt6wgwya9gG0v-36">
          <mxGeometry width="50" height="50" relative="1" as="geometry">
            <mxPoint y="14.5" as="sourcePoint" />
            <mxPoint x="70" y="14.5" as="targetPoint" />
          </mxGeometry>
        </mxCell>
        <mxCell id="BxvPovNHt6wgwya9gG0v-32" value="Contrastive loss" style="text;html=1;align=center;verticalAlign=middle;resizable=0;points=[];autosize=1;strokeColor=none;fillColor=none;" vertex="1" parent="BxvPovNHt6wgwya9gG0v-36">
          <mxGeometry x="70" width="110" height="30" as="geometry" />
        </mxCell>
        <mxCell id="BxvPovNHt6wgwya9gG0v-33" value="" style="endArrow=classic;startArrow=none;html=1;rounded=0;dashed=1;strokeWidth=2;startFill=0;" edge="1" parent="BxvPovNHt6wgwya9gG0v-36">
          <mxGeometry width="50" height="50" relative="1" as="geometry">
            <mxPoint y="44.5" as="sourcePoint" />
            <mxPoint x="70" y="44.5" as="targetPoint" />
          </mxGeometry>
        </mxCell>
        <mxCell id="BxvPovNHt6wgwya9gG0v-34" value="KD loss" style="text;html=1;align=center;verticalAlign=middle;resizable=0;points=[];autosize=1;strokeColor=none;fillColor=none;" vertex="1" parent="BxvPovNHt6wgwya9gG0v-36">
          <mxGeometry x="95" y="30" width="60" height="30" as="geometry" />
        </mxCell>
        <mxCell id="BxvPovNHt6wgwya9gG0v-37" value="(a) Contrastive loss + KD loss" style="text;html=1;align=center;verticalAlign=middle;resizable=0;points=[];autosize=1;strokeColor=none;fillColor=none;" vertex="1" parent="1">
          <mxGeometry x="127" y="92" width="180" height="30" as="geometry" />
        </mxCell>
        <mxCell id="BxvPovNHt6wgwya9gG0v-38" value="(b) Contrastive loss" style="text;html=1;align=center;verticalAlign=middle;resizable=0;points=[];autosize=1;strokeColor=none;fillColor=none;" vertex="1" parent="1">
          <mxGeometry x="550" y="92" width="121" height="26" as="geometry" />
        </mxCell>
        <mxCell id="BxvPovNHt6wgwya9gG0v-40" value="" style="rounded=0;whiteSpace=wrap;html=1;fillColor=#fad7ac;strokeColor=#b46504;" vertex="1" parent="1">
          <mxGeometry x="572.5" y="150" width="75" height="75" as="geometry" />
        </mxCell>
        <mxCell id="BxvPovNHt6wgwya9gG0v-41" value="&lt;font style=&quot;font-size: 12px;&quot;&gt;$$\mathbf{h}^t_{v, L_t, \texttt{[I_CLS]}}$$&lt;/font&gt;" style="text;html=1;align=center;verticalAlign=middle;resizable=0;points=[];autosize=1;strokeColor=none;fillColor=none;" vertex="1" parent="1">
          <mxGeometry x="490" y="172.5" width="240" height="30" as="geometry" />
        </mxCell>
        <mxCell id="BxvPovNHt6wgwya9gG0v-42" value="" style="group" vertex="1" connectable="0" parent="1">
          <mxGeometry x="536" y="274" width="300" height="82" as="geometry" />
        </mxCell>
        <mxCell id="BxvPovNHt6wgwya9gG0v-43" value="" style="rounded=0;whiteSpace=wrap;html=1;fillColor=#bac8d3;strokeColor=#23445d;aspect=fixed;" vertex="1" parent="BxvPovNHt6wgwya9gG0v-42">
          <mxGeometry x="100" width="75" height="75" as="geometry" />
        </mxCell>
        <mxCell id="BxvPovNHt6wgwya9gG0v-44" value="&lt;font style=&quot;font-size: 12px;&quot;&gt;$$\mathbf{h}&#39;&#39;&#39;^s_{w, K, \texttt{[T_CLS]}}$$&lt;/font&gt;" style="text;html=1;align=center;verticalAlign=middle;resizable=0;points=[];autosize=1;strokeColor=none;fillColor=none;" vertex="1" parent="BxvPovNHt6wgwya9gG0v-42">
          <mxGeometry x="12.5" y="26.005" width="250" height="30" as="geometry" />
        </mxCell>
      </root>
    </mxGraphModel>
  </diagram>
</mxfile>
